<svg xmlns="http://www.w3.org/2000/svg" xmlns:xlink="http://www.w3.org/1999/xlink" version="1.1" width="114.43pt" height="16.6pt" viewBox="0 0 114.43 16.6">
<defs>
<path id="font_1_66" d="M.24699402 0V.0309906C.18099976 .0309906 .1769867 .035995485 .1769867 .075042728V.4423828L.036987306 .43066407V.3996582C.101989749 .3996582 .11099243 .3936615 .11099243 .3447113V.07595825C.11099243 .0309906 .099990848 .0309906 .032989503 .0309906V0L.14299011 .0029907227C.17799378 .0029907227 .21299744 .0009918213 .24699402 0M.19198609 .603775C.19198609 .6307678 .16899109 .6567688 .13899231 .6567688 .10499573 .6567688 .084991458 .6287689 .084991458 .603775 .084991458 .57676699 .10798645 .55078127 .13798523 .55078127 .17199707 .55078127 .19198609 .5787811 .19198609 .603775Z"/>
<path id="font_1_77" d="M.5349884 0V.0309906C.48298646 .0309906 .45799256 .0309906 .45700074 .061019899V.25221253C.45700074 .3383026 .45700074 .36932374 .42599488 .405365 .4119873 .42237855 .3789978 .4423828 .32099916 .4423828 .24798584 .4423828 .20098877 .39935304 .17298889 .33729554V.4423828L.03199768 .43066407V.3996582C.101989749 .3996582 .10998535 .39266969 .10998535 .34370423V.07595825C.10998535 .0309906 .09899902 .0309906 .03199768 .0309906V0L.14498902 .0029907227 .25698854 0V.0309906C.18998719 .0309906 .1789856 .0309906 .1789856 .07595825V.25978089C.1789856 .36431886 .25 .42037965 .31399537 .42037965 .3769989 .42037965 .3880005 .36631776 .3880005 .30926515V.076034549C.3880005 .0309906 .3769989 .0309906 .30999757 .0309906V0L.4229889 .0029907227 .5349884 0Z"/>
<path id="font_1_84" d="M.5209961 .21636963C.5209961 .34336854 .42399598 .4423828 .31199647 .4423828 .23399353 .4423828 .19198609 .39837647 .17199707 .3763733V.4423828L.027999878 .43066407V.3996582C.09899902 .3996582 .10598755 .3936615 .10598755 .34973146V-.117996219C.10598755-.16308594 .09498596-.16308594 .027999878-.16308594V-.1940918L.13999939-.19110108 .25299073-.1940918V-.16308594C.18598938-.16308594 .1749878-.16308594 .1749878-.117996219V.050186159 .059173585C.17999268 .04319763 .22200012-.0107421879 .2979889-.0107421879 .4169922-.0107421879 .5209961 .087127689 .5209961 .21594239V.21636963M.43798829 .21594239C.43798829 .09512329 .36799623 .011245728 .2939911 .011245728 .2539978 .011245728 .21598816 .031219483 .18899536 .07215881 .1749878 .09312439 .1749878 .09411621 .1749878 .114089969V.33674623C.20399475 .38838197 .25299073 .41737367 .3039856 .41737367 .3769989 .41737367 .43798829 .32937623 .43798829 .21636963V.21594239Z"/>
<path id="font_1_109" d="M.5349884 0V.0309906C.46499635 .0309906 .45700074 .037994386 .45700074 .08705139V.4423828L.30999757 .43066407V.3996582C.37998963 .3996582 .3880005 .39266969 .3880005 .34373475V.16601563C.3880005 .07910156 .33999635 .011245728 .2669983 .011245728 .18299866 .011245728 .1789856 .058135988 .1789856 .11009216V.4423828L.03199768 .43066407V.3996582C.10998535 .3996582 .10998535 .39666749 .10998535 .3078003V.15802002C.10998535 .080093387 .10998535-.0107421879 .2619934-.0107421879 .31799317-.0107421879 .3619995 .017242432 .3909912 .07910156V-.0107421879L.5349884 0Z"/>
<path id="font_1_105" d="M.33198548 .12385559V.18066406H.30699159V.12585449C.30699159 .052108766 .2769928 .014251709 .23999024 .014251709 .17298889 .014251709 .17298889 .10491943 .17298889 .12187195V.3996582H.31599427V.43066407H.17298889V.6142578H.147995C.14698792 .5324249 .116989139 .42565919 .018997193 .42166139V.3996582H.10398865V.12408447C.10398865 .0012512207 .19699097-.0107421879 .23298645-.0107421879 .3039856-.0107421879 .33198548 .060180665 .33198548 .12408447V.12385559Z"/>
<path id="font_1_85" d="M.33099366-.2400055C.33099366-.23701477 .33099366-.23500061 .31399537-.21800232 .18899536-.0920105 .15699768 .09700012 .15699768 .25 .15699768 .42399598 .19499207 .59799197 .31799317 .72299197 .33099366 .7350006 .33099366 .7369995 .33099366 .73999026 .33099366 .746994 .32699586 .75 .32099916 .75 .31098939 .75 .22099304 .6819916 .1619873 .5549927 .11099243 .44499208 .09899902 .33399964 .09899902 .25 .09899902 .17199707 .10998535 .050994874 .16499329-.06201172 .22499085-.18501282 .31098939-.25 .32099916-.25 .32699586-.25 .33099366-.24700928 .33099366-.2400055Z"/>
<path id="font_1_27" d="M.71699526 0V.0309906H.69898989C.6389923 .0309906 .625 .037979127 .6139984 .07095337L.397995 .6958008C.3929901 .7088165 .3909912 .7158203 .375 .7158203 .35899354 .7158203 .35598756 .70980837 .35099793 .6958008L.14399719 .09791565C.12599182 .04698181 .085998538 .03199768 .03199768 .0309906V0L.13398743 .0029907227 .24899292 0V.0309906C.19898987 .0309906 .17399597 .05596924 .17399597 .0819397 .17399597 .08493042 .1749878 .09492493 .17599488 .09692383L.22200012 .2277832H.46899415L.5219879 .07495117C.522995 .07095337 .5249939 .064956668 .5249939 .060958864 .5249939 .0309906 .46899415 .0309906 .44198609 .0309906V0C.47799684 .0029907227 .5479889 .0029907227 .58599856 .0029907227L.71699526 0M.45799256 .25878907H.23298645L.34498597 .58380129 .45799256 .25878907Z"/>
<path id="font_1_86" d="M.2889862 .25C.2889862 .32798768 .27799989 .44898988 .22299195 .56199648 .16299439 .68499758 .07699585 .75 .066986087 .75 .06098938 .75 .056991579 .74598696 .056991579 .73999026 .056991579 .7369995 .056991579 .7350006 .07598877 .71699526 .17399597 .6179962 .23098755 .45899964 .23098755 .25 .23098755 .07899475 .19400025-.09700012 .069992069-.2230072 .056991579-.23500061 .056991579-.23701477 .056991579-.2400055 .056991579-.2460022 .06098938-.25 .066986087-.25 .07699585-.25 .16699219-.18200684 .22599793-.055007936 .2769928 .054992677 .2889862 .16600037 .2889862 .25Z"/>
<path id="font_1_50" d="M.4149933 .11933899C.4149933 .12934876 .40699769 .13134766 .4019928 .13134766 .3929901 .13134766 .3909912 .12535095 .3889923 .11734009 .35398866 .014251709 .2639923 .014251709 .2539978 .014251709 .20399475 .014251709 .1639862 .044281007 .14099121 .08131409 .11099243 .12934876 .11099243 .19540406 .11099243 .23144531H.3899994C.4119873 .23144531 .4149933 .23144531 .4149933 .2524414 .4149933 .35131837 .36099244 .4482422 .23599243 .4482422 .11999512 .4482422 .027999878 .34532167 .027999878 .22042847 .027999878 .08631897 .1329956-.0107421879 .24798584-.0107421879 .36999513-.0107421879 .4149933 .10032654 .4149933 .11933899M.34899903 .2524414H.11199951C.117996219 .40126039 .20199585 .426239 .23599243 .426239 .33898927 .426239 .34899903 .2913971 .34899903 .2524414Z"/>
<path id="font_1_96" d="M.3639984 .38137818C.3639984 .41337586 .33299256 .4423828 .2899933 .4423828 .21699524 .4423828 .18099976 .37538148 .16699219 .3323822V.4423828L.027999878 .43066407V.3996582C.09799194 .3996582 .10598755 .39266969 .10598755 .34370423V.07595825C.10598755 .0309906 .09498596 .0309906 .027999878 .0309906V0L.14199829 .0029907227C.18199158 .0029907227 .22898865 .0029907227 .2689972 0V.0309906H.24798584C.17399597 .0309906 .17199707 .04197693 .17199707 .07795715V.23181153C.17199707 .33137513 .21398926 .42037965 .2899933 .42037965 .29699708 .42037965 .29899598 .42037965 .30099488 .41937257 .2979889 .41838075 .27799989 .40637208 .27799989 .3803711 .27799989 .35237123 .29899598 .33737184 .32099916 .33737184 .33898927 .33737184 .3639984 .3493805 .3639984 .38137818Z"/>
<path id="font_1_81" d="M.47099305 .21424866C.47099305 .34223939 .37098695 .4482422 .25 .4482422 .125 .4482422 .027999878 .3392334 .027999878 .21424866 .027999878 .085250858 .13198853-.0107421879 .24899292-.0107421879 .36999513-.0107421879 .47099305 .087249759 .47099305 .21424866M.3880005 .22224427C.3880005 .18624878 .3880005 .13224793 .3659973 .08824158 .34399415 .04324341 .2999878 .014251709 .25 .014251709 .20698548 .014251709 .16299439 .035247804 .13598633 .08125305 .11099243 .12524414 .11099243 .18624878 .11099243 .22224427 .11099243 .26124574 .11099243 .31523133 .1349945 .35923768 .1619873 .40522767 .20899964 .426239 .24899292 .426239 .29299928 .426239 .33599855 .40423585 .3619995 .36123658 .3880005 .3182373 .3880005 .26023866 .3880005 .22224427Z"/>
<path id="font_1_47" d="M.5269928 0V.0309906C.45700074 .0309906 .44898988 .038009645 .44898988 .0871582V.69433596L.30499269 .6826172V.6516113C.375 .6516113 .3829956 .64463809 .3829956 .59580996V.38035584C.35398866 .41636659 .31098939 .4423828 .25698854 .4423828 .13899231 .4423828 .033996583 .3443451 .033996583 .21531677 .033996583 .088272098 .13198853-.0107421879 .24598694-.0107421879 .30999757-.0107421879 .35499574 .023254395 .37998963 .055267335V-.0107421879L.5269928 0M.37998963 .117996219C.37998963 .099990848 .37998963 .09799194 .36898805 .08099365 .33898927 .033218385 .2939911 .011245728 .25099183 .011245728 .20599365 .011245728 .16999817 .037216188 .1459961 .075164798 .11999512 .1161499 .116989139 .17320252 .116989139 .21421814 .116989139 .25125123 .11898804 .31129457 .147995 .35632325 .16899109 .38734437 .20698548 .42037965 .26098634 .42037965 .29599 .42037965 .33799745 .405365 .36898805 .3603363 .37998963 .34332276 .37998963 .34132386 .37998963 .32330323V.117996219Z"/>
<path id="font_2_1" d="M.644989 .68193057C.6409912 .70692446 .6359863 .7109375 .61099246 .7109375 .58898928 .7109375 .58099368 .70692446 .5669861 .68592837L.17399597 .08502197C.1619873 .06600952 .1499939 .04798889 .07699585 .04699707 .06298828 .04699707 .04499817 .04699707 .04499817 .017990113 .04499817 .009994507 .051986696 0 .06399536 0 .09399414 0 .12799073 .0029907227 .15899658 .0029907227 .19599915 .0029907227 .23399353 0 .269989 0 .2769928 0 .29699708 0 .29699708 .0289917 .29699708 .04699707 .2789917 .04699707 .2709961 .04699707 .2630005 .04699707 .23498535 .04699707 .21299744 .057998659L.30499269 .19810486H.57499697L.59799197 .052001954C.57899478 .04798889 .5479889 .04699707 .5329895 .04699707 .5130005 .04699707 .49598695 .04699707 .49598695 .017990113 .49598695 .004989624 .5069885 0 .5179901 0 .5509949 0 .6339874 .0029907227 .6669922 .0029907227 .6899872 .0029907227 .71299746 .0019989014 .73599246 .0019989014 .7589874 .0019989014 .7829895 0 .80599978 0 .8149872 0 .83399966 0 .83399966 .0289917 .83399966 .04699707 .81900027 .04699707 .7939911 .04699707 .7799988 .04699707 .7689972 .04699707 .7549896 .04798889 .7429962 .04899597 .74198916 .049987794 .7389984 .06700134L.644989 .68193057M.5239868 .5329895 .56799319 .24511719H.33599855L.5239868 .5329895Z"/>
</defs>
<use data-text="i" xlink:href="#font_1_66" transform="matrix(9.9626,0,0,-9.9626,3.3199998,10.788998)"/>
<use data-text="n" xlink:href="#font_1_77" transform="matrix(9.9626,0,0,-9.9626,6.0896027,10.788998)"/>
<use data-text="p" xlink:href="#font_1_84" transform="matrix(9.9626,0,0,-9.9626,11.628809,10.788998)"/>
<use data-text="u" xlink:href="#font_1_109" transform="matrix(9.9626,0,0,-9.9626,17.168015,10.788998)"/>
<use data-text="t" xlink:href="#font_1_105" transform="matrix(9.9626,0,0,-9.9626,22.70722,10.788998)"/>
<use data-text="(" xlink:href="#font_1_85" transform="matrix(9.9626,0,0,-9.9626,26.582673,10.788998)"/>
<use data-text="A" xlink:href="#font_1_27" transform="matrix(9.9626,0,0,-9.9626,30.458125,10.788998)"/>
<use data-text=")" xlink:href="#font_1_86" transform="matrix(9.9626,0,0,-9.9626,37.930078,10.788998)"/>
<use data-text="n" xlink:href="#font_1_77" transform="matrix(9.9626,0,0,-9.9626,45.11311,10.788998)"/>
<use data-text="e" xlink:href="#font_1_50" transform="matrix(9.9626,0,0,-9.9626,50.652318,10.788998)"/>
<use data-text="u" xlink:href="#font_1_109" transform="matrix(9.9626,0,0,-9.9626,55.07571,10.788998)"/>
<use data-text="r" xlink:href="#font_1_96" transform="matrix(9.9626,0,0,-9.9626,60.614919,10.788998)"/>
<use data-text="o" xlink:href="#font_1_81" transform="matrix(9.9626,0,0,-9.9626,64.520259,10.788998)"/>
<use data-text="n" xlink:href="#font_1_77" transform="matrix(9.9626,0,0,-9.9626,69.50156,10.788998)"/>
<use data-text="n" xlink:href="#font_1_77" transform="matrix(9.9626,0,0,-9.9626,78.35831,10.788998)"/>
<use data-text="o" xlink:href="#font_1_81" transform="matrix(9.9626,0,0,-9.9626,83.89752,10.788998)"/>
<use data-text="d" xlink:href="#font_1_47" transform="matrix(9.9626,0,0,-9.9626,89.157779,10.788998)"/>
<use data-text="e" xlink:href="#font_1_50" transform="matrix(9.9626,0,0,-9.9626,94.696979,10.788998)"/>
<use data-text="A" xlink:href="#font_2_1" transform="matrix(9.9626,0,0,-9.9626,102.448,10.788998)"/>
</svg>
