<?xml version="1.0" encoding="utf-8" standalone="no"?>
<!DOCTYPE svg PUBLIC "-//W3C//DTD SVG 1.1//EN"
  "http://www.w3.org/Graphics/SVG/1.1/DTD/svg11.dtd">
<svg xmlns:xlink="http://www.w3.org/1999/xlink" width="720pt" height="432pt" viewBox="0 0 720 432" xmlns="http://www.w3.org/2000/svg" version="1.1">
 <metadata>
  <rdf:RDF xmlns:dc="http://purl.org/dc/elements/1.1/" xmlns:cc="http://creativecommons.org/ns#" xmlns:rdf="http://www.w3.org/1999/02/22-rdf-syntax-ns#">
   <cc:Work>
    <dc:type rdf:resource="http://purl.org/dc/dcmitype/StillImage"/>
    <dc:date>2024-03-15T23:20:57.824249</dc:date>
    <dc:format>image/svg+xml</dc:format>
    <dc:creator>
     <cc:Agent>
      <dc:title>Matplotlib v3.8.0, https://matplotlib.org/</dc:title>
     </cc:Agent>
    </dc:creator>
   </cc:Work>
  </rdf:RDF>
 </metadata>
 <defs>
  <style type="text/css">*{stroke-linejoin: round; stroke-linecap: butt}</style>
 </defs>
 <g id="figure_1">
  <g id="patch_1">
   <path d="M 0 432 
L 720 432 
L 720 0 
L 0 0 
z
" style="fill: #ffffff"/>
  </g>
  <g id="axes_1">
   <g id="patch_2">
    <path d="M 90 384.48 
L 648 384.48 
L 648 51.84 
L 90 51.84 
z
" style="fill: #ffffff"/>
   </g>
   <g id="matplotlib.axis_1">
    <g id="xtick_1">
     <g id="line2d_1">
      <defs>
       <path id="m4bb2ebf96f" d="M 0 0 
L 0 3.5 
" style="stroke: #000000; stroke-width: 0.8"/>
      </defs>
      <g>
       <use xlink:href="#m4bb2ebf96f" x="166.090909" y="384.48" style="stroke: #000000; stroke-width: 0.8"/>
      </g>
     </g>
     <g id="text_1">
      <!-- −4 -->
      <g transform="translate(158.719815 399.078438) scale(0.1 -0.1)">
       <defs>
        <path id="DejaVuSans-2212" d="M 678 2272 
L 4684 2272 
L 4684 1741 
L 678 1741 
L 678 2272 
z
" transform="scale(0.015625)"/>
        <path id="DejaVuSans-34" d="M 2419 4116 
L 825 1625 
L 2419 1625 
L 2419 4116 
z
M 2253 4666 
L 3047 4666 
L 3047 1625 
L 3713 1625 
L 3713 1100 
L 3047 1100 
L 3047 0 
L 2419 0 
L 2419 1100 
L 313 1100 
L 313 1709 
L 2253 4666 
z
" transform="scale(0.015625)"/>
       </defs>
       <use xlink:href="#DejaVuSans-2212"/>
       <use xlink:href="#DejaVuSans-34" x="83.789062"/>
      </g>
     </g>
    </g>
    <g id="xtick_2">
     <g id="line2d_2">
      <g>
       <use xlink:href="#m4bb2ebf96f" x="267.545455" y="384.48" style="stroke: #000000; stroke-width: 0.8"/>
      </g>
     </g>
     <g id="text_2">
      <!-- −2 -->
      <g transform="translate(260.174361 399.078438) scale(0.1 -0.1)">
       <defs>
        <path id="DejaVuSans-32" d="M 1228 531 
L 3431 531 
L 3431 0 
L 469 0 
L 469 531 
Q 828 903 1448 1529 
Q 2069 2156 2228 2338 
Q 2531 2678 2651 2914 
Q 2772 3150 2772 3378 
Q 2772 3750 2511 3984 
Q 2250 4219 1831 4219 
Q 1534 4219 1204 4116 
Q 875 4013 500 3803 
L 500 4441 
Q 881 4594 1212 4672 
Q 1544 4750 1819 4750 
Q 2544 4750 2975 4387 
Q 3406 4025 3406 3419 
Q 3406 3131 3298 2873 
Q 3191 2616 2906 2266 
Q 2828 2175 2409 1742 
Q 1991 1309 1228 531 
z
" transform="scale(0.015625)"/>
       </defs>
       <use xlink:href="#DejaVuSans-2212"/>
       <use xlink:href="#DejaVuSans-32" x="83.789062"/>
      </g>
     </g>
    </g>
    <g id="xtick_3">
     <g id="line2d_3">
      <g>
       <use xlink:href="#m4bb2ebf96f" x="369" y="384.48" style="stroke: #000000; stroke-width: 0.8"/>
      </g>
     </g>
     <g id="text_3">
      <!-- 0 -->
      <g transform="translate(365.81875 399.078438) scale(0.1 -0.1)">
       <defs>
        <path id="DejaVuSans-30" d="M 2034 4250 
Q 1547 4250 1301 3770 
Q 1056 3291 1056 2328 
Q 1056 1369 1301 889 
Q 1547 409 2034 409 
Q 2525 409 2770 889 
Q 3016 1369 3016 2328 
Q 3016 3291 2770 3770 
Q 2525 4250 2034 4250 
z
M 2034 4750 
Q 2819 4750 3233 4129 
Q 3647 3509 3647 2328 
Q 3647 1150 3233 529 
Q 2819 -91 2034 -91 
Q 1250 -91 836 529 
Q 422 1150 422 2328 
Q 422 3509 836 4129 
Q 1250 4750 2034 4750 
z
" transform="scale(0.015625)"/>
       </defs>
       <use xlink:href="#DejaVuSans-30"/>
      </g>
     </g>
    </g>
    <g id="xtick_4">
     <g id="line2d_4">
      <g>
       <use xlink:href="#m4bb2ebf96f" x="470.454545" y="384.48" style="stroke: #000000; stroke-width: 0.8"/>
      </g>
     </g>
     <g id="text_4">
      <!-- 2 -->
      <g transform="translate(467.273295 399.078438) scale(0.1 -0.1)">
       <use xlink:href="#DejaVuSans-32"/>
      </g>
     </g>
    </g>
    <g id="xtick_5">
     <g id="line2d_5">
      <g>
       <use xlink:href="#m4bb2ebf96f" x="571.909091" y="384.48" style="stroke: #000000; stroke-width: 0.8"/>
      </g>
     </g>
     <g id="text_5">
      <!-- 4 -->
      <g transform="translate(568.727841 399.078438) scale(0.1 -0.1)">
       <use xlink:href="#DejaVuSans-34"/>
      </g>
     </g>
    </g>
    <g id="text_6">
     <!-- x -->
     <g transform="translate(366.040625 412.756563) scale(0.1 -0.1)">
      <defs>
       <path id="DejaVuSans-78" d="M 3513 3500 
L 2247 1797 
L 3578 0 
L 2900 0 
L 1881 1375 
L 863 0 
L 184 0 
L 1544 1831 
L 300 3500 
L 978 3500 
L 1906 2253 
L 2834 3500 
L 3513 3500 
z
" transform="scale(0.015625)"/>
      </defs>
      <use xlink:href="#DejaVuSans-78"/>
     </g>
    </g>
   </g>
   <g id="matplotlib.axis_2">
    <g id="ytick_1">
     <g id="line2d_6">
      <defs>
       <path id="m89228a456b" d="M 0 0 
L -3.5 0 
" style="stroke: #000000; stroke-width: 0.8"/>
      </defs>
      <g>
       <use xlink:href="#m89228a456b" x="90" y="356.451771" style="stroke: #000000; stroke-width: 0.8"/>
      </g>
     </g>
     <g id="text_7">
      <!-- 0.0 -->
      <g transform="translate(67.096875 360.25099) scale(0.1 -0.1)">
       <defs>
        <path id="DejaVuSans-2e" d="M 684 794 
L 1344 794 
L 1344 0 
L 684 0 
L 684 794 
z
" transform="scale(0.015625)"/>
       </defs>
       <use xlink:href="#DejaVuSans-30"/>
       <use xlink:href="#DejaVuSans-2e" x="63.623047"/>
       <use xlink:href="#DejaVuSans-30" x="95.410156"/>
      </g>
     </g>
    </g>
    <g id="ytick_2">
     <g id="line2d_7">
      <g>
       <use xlink:href="#m89228a456b" x="90" y="299.446108" style="stroke: #000000; stroke-width: 0.8"/>
      </g>
     </g>
     <g id="text_8">
      <!-- 0.2 -->
      <g transform="translate(67.096875 303.245327) scale(0.1 -0.1)">
       <use xlink:href="#DejaVuSans-30"/>
       <use xlink:href="#DejaVuSans-2e" x="63.623047"/>
       <use xlink:href="#DejaVuSans-32" x="95.410156"/>
      </g>
     </g>
    </g>
    <g id="ytick_3">
     <g id="line2d_8">
      <g>
       <use xlink:href="#m89228a456b" x="90" y="242.440445" style="stroke: #000000; stroke-width: 0.8"/>
      </g>
     </g>
     <g id="text_9">
      <!-- 0.4 -->
      <g transform="translate(67.096875 246.239664) scale(0.1 -0.1)">
       <use xlink:href="#DejaVuSans-30"/>
       <use xlink:href="#DejaVuSans-2e" x="63.623047"/>
       <use xlink:href="#DejaVuSans-34" x="95.410156"/>
      </g>
     </g>
    </g>
    <g id="ytick_4">
     <g id="line2d_9">
      <g>
       <use xlink:href="#m89228a456b" x="90" y="185.434782" style="stroke: #000000; stroke-width: 0.8"/>
      </g>
     </g>
     <g id="text_10">
      <!-- 0.6 -->
      <g transform="translate(67.096875 189.234) scale(0.1 -0.1)">
       <defs>
        <path id="DejaVuSans-36" d="M 2113 2584 
Q 1688 2584 1439 2293 
Q 1191 2003 1191 1497 
Q 1191 994 1439 701 
Q 1688 409 2113 409 
Q 2538 409 2786 701 
Q 3034 994 3034 1497 
Q 3034 2003 2786 2293 
Q 2538 2584 2113 2584 
z
M 3366 4563 
L 3366 3988 
Q 3128 4100 2886 4159 
Q 2644 4219 2406 4219 
Q 1781 4219 1451 3797 
Q 1122 3375 1075 2522 
Q 1259 2794 1537 2939 
Q 1816 3084 2150 3084 
Q 2853 3084 3261 2657 
Q 3669 2231 3669 1497 
Q 3669 778 3244 343 
Q 2819 -91 2113 -91 
Q 1303 -91 875 529 
Q 447 1150 447 2328 
Q 447 3434 972 4092 
Q 1497 4750 2381 4750 
Q 2619 4750 2861 4703 
Q 3103 4656 3366 4563 
z
" transform="scale(0.015625)"/>
       </defs>
       <use xlink:href="#DejaVuSans-30"/>
       <use xlink:href="#DejaVuSans-2e" x="63.623047"/>
       <use xlink:href="#DejaVuSans-36" x="95.410156"/>
      </g>
     </g>
    </g>
    <g id="ytick_5">
     <g id="line2d_10">
      <g>
       <use xlink:href="#m89228a456b" x="90" y="128.429118" style="stroke: #000000; stroke-width: 0.8"/>
      </g>
     </g>
     <g id="text_11">
      <!-- 0.8 -->
      <g transform="translate(67.096875 132.228337) scale(0.1 -0.1)">
       <defs>
        <path id="DejaVuSans-38" d="M 2034 2216 
Q 1584 2216 1326 1975 
Q 1069 1734 1069 1313 
Q 1069 891 1326 650 
Q 1584 409 2034 409 
Q 2484 409 2743 651 
Q 3003 894 3003 1313 
Q 3003 1734 2745 1975 
Q 2488 2216 2034 2216 
z
M 1403 2484 
Q 997 2584 770 2862 
Q 544 3141 544 3541 
Q 544 4100 942 4425 
Q 1341 4750 2034 4750 
Q 2731 4750 3128 4425 
Q 3525 4100 3525 3541 
Q 3525 3141 3298 2862 
Q 3072 2584 2669 2484 
Q 3125 2378 3379 2068 
Q 3634 1759 3634 1313 
Q 3634 634 3220 271 
Q 2806 -91 2034 -91 
Q 1263 -91 848 271 
Q 434 634 434 1313 
Q 434 1759 690 2068 
Q 947 2378 1403 2484 
z
M 1172 3481 
Q 1172 3119 1398 2916 
Q 1625 2713 2034 2713 
Q 2441 2713 2670 2916 
Q 2900 3119 2900 3481 
Q 2900 3844 2670 4047 
Q 2441 4250 2034 4250 
Q 1625 4250 1398 4047 
Q 1172 3844 1172 3481 
z
" transform="scale(0.015625)"/>
       </defs>
       <use xlink:href="#DejaVuSans-30"/>
       <use xlink:href="#DejaVuSans-2e" x="63.623047"/>
       <use xlink:href="#DejaVuSans-38" x="95.410156"/>
      </g>
     </g>
    </g>
    <g id="ytick_6">
     <g id="line2d_11">
      <g>
       <use xlink:href="#m89228a456b" x="90" y="71.423455" style="stroke: #000000; stroke-width: 0.8"/>
      </g>
     </g>
     <g id="text_12">
      <!-- 1.0 -->
      <g transform="translate(67.096875 75.222674) scale(0.1 -0.1)">
       <defs>
        <path id="DejaVuSans-31" d="M 794 531 
L 1825 531 
L 1825 4091 
L 703 3866 
L 703 4441 
L 1819 4666 
L 2450 4666 
L 2450 531 
L 3481 531 
L 3481 0 
L 794 0 
L 794 531 
z
" transform="scale(0.015625)"/>
       </defs>
       <use xlink:href="#DejaVuSans-31"/>
       <use xlink:href="#DejaVuSans-2e" x="63.623047"/>
       <use xlink:href="#DejaVuSans-30" x="95.410156"/>
      </g>
     </g>
    </g>
    <g id="text_13">
     <!-- y -->
     <g transform="translate(61.017187 221.119375) rotate(-90) scale(0.1 -0.1)">
      <defs>
       <path id="DejaVuSans-79" d="M 2059 -325 
Q 1816 -950 1584 -1140 
Q 1353 -1331 966 -1331 
L 506 -1331 
L 506 -850 
L 844 -850 
Q 1081 -850 1212 -737 
Q 1344 -625 1503 -206 
L 1606 56 
L 191 3500 
L 800 3500 
L 1894 763 
L 2988 3500 
L 3597 3500 
L 2059 -325 
z
" transform="scale(0.015625)"/>
      </defs>
      <use xlink:href="#DejaVuSans-79"/>
     </g>
    </g>
   </g>
   <g id="line2d_12">
    <path d="M 115.363636 356.450264 
L 120.487603 356.44463 
L 125.61157 356.422777 
L 130.735537 356.349824 
L 135.859504 356.138142 
L 140.983471 355.599271 
L 146.107438 354.384918 
L 151.231405 351.941517 
L 156.355372 347.515741 
L 161.479339 340.242863 
L 166.603306 329.319949 
L 171.727273 314.223048 
L 176.85124 294.896434 
L 181.975207 271.843179 
L 187.099174 246.081102 
L 192.22314 218.977938 
L 197.347107 192.019329 
L 202.471074 166.577005 
L 207.595041 143.732075 
L 212.719008 124.181018 
L 217.842975 108.223852 
L 222.966942 95.814723 
L 228.090909 86.647713 
L 233.214876 80.252683 
L 238.338843 76.083214 
L 243.46281 73.587051 
L 248.586777 72.256387 
L 253.710744 71.659888 
L 258.834711 71.460618 
L 263.958678 71.424506 
L 269.082645 71.42345 
L 274.206612 71.436077 
L 279.330579 71.547785 
L 284.454545 71.950384 
L 289.578512 72.940184 
L 294.702479 74.912062 
L 299.826446 78.34578 
L 304.950413 83.780014 
L 310.07438 91.769532 
L 315.198347 102.822412 
L 320.322314 117.317774 
L 325.446281 135.410472 
L 330.570248 156.937206 
L 335.694215 181.346545 
L 340.818182 207.68003 
L 345.942149 234.628357 
L 351.066116 260.67217 
L 356.190083 284.291809 
L 361.31405 304.20137 
L 366.438017 319.542568 
L 371.561983 329.976716 
L 376.68595 335.64391 
L 381.809917 337.007324 
L 386.933884 334.644433 
L 392.057851 329.062623 
L 397.181818 320.596369 
L 402.305785 309.400961 
L 407.429752 295.519014 
L 412.553719 278.978989 
L 417.677686 259.890513 
L 422.801653 238.516939 
L 427.92562 215.318914 
L 433.049587 190.968754 
L 438.173554 166.336637 
L 443.297521 142.449822 
L 448.421488 120.427578 
L 453.545455 101.397228 
L 458.669421 86.399795 
L 463.793388 76.296107 
L 468.917355 71.685069 
L 474.041322 72.844895 
L 479.165289 79.705321 
L 484.289256 91.854652 
L 489.413223 108.580658 
L 494.53719 128.939684 
L 499.661157 151.844632 
L 504.785124 176.160441 
L 509.909091 200.795489 
L 515.033058 224.778927 
L 520.157025 247.316902 
L 525.280992 267.824251 
L 530.404959 285.931915 
L 535.528926 301.473385 
L 540.652893 314.455541 
L 545.77686 325.020179 
L 550.900826 333.40234 
L 556.024793 339.890572 
L 561.14876 344.792776 
L 566.272727 348.409695 
L 571.396694 351.016603 
L 576.520661 352.852657 
L 581.644628 354.116615 
L 586.768595 354.967292 
L 591.892562 355.527137 
L 597.016529 355.88748 
L 602.140496 356.114348 
L 607.264463 356.254082 
L 612.38843 356.338288 
L 617.512397 356.387943 
L 622.636364 356.416596 
" clip-path="url(#pe9b72470e4)" style="fill: none; stroke: #1f77b4; stroke-width: 1.5; stroke-linecap: square"/>
   </g>
   <g id="line2d_13">
    <path d="M 115.363636 350.458291 
L 120.441441 352.165783 
L 133.135954 356.580891 
L 136.182637 357.323515 
L 138.72154 357.713523 
L 140.752662 357.828004 
L 142.783784 357.726439 
L 144.814906 357.368404 
L 146.338247 356.906286 
L 147.861589 356.258448 
L 149.38493 355.406008 
L 150.908272 354.330939 
L 152.431613 353.014898 
L 153.954955 351.440437 
L 155.478296 349.590839 
L 157.001638 347.45041 
L 158.52498 345.005012 
L 160.556102 341.248716 
L 162.587224 336.904134 
L 164.618346 331.954734 
L 166.649468 326.392544 
L 168.68059 320.218856 
L 171.219492 311.660153 
L 173.758395 302.209226 
L 176.297297 291.936127 
L 179.34398 278.656454 
L 182.898444 262.108443 
L 187.976249 237.221742 
L 197.116298 192.212337 
L 201.178542 173.469261 
L 204.733006 158.185369 
L 207.779689 146.061178 
L 210.826372 134.913243 
L 213.365274 126.394783 
L 215.904177 118.582216 
L 218.443079 111.466232 
L 220.981982 105.028162 
L 223.520885 99.241449 
L 226.059787 94.074004 
L 228.59869 89.490504 
L 231.137592 85.45293 
L 233.676495 81.923123 
L 235.707617 79.439109 
L 237.738739 77.236415 
L 239.769861 75.296746 
L 241.800983 73.602466 
L 244.339885 71.804162 
L 246.878788 70.332727 
L 249.41769 69.160009 
L 251.956593 68.260577 
L 254.495495 67.611834 
L 257.034398 67.193497 
L 259.573301 66.987828 
L 262.112203 66.979571 
L 265.158886 67.212219 
L 268.205569 67.69294 
L 271.252252 68.408449 
L 274.298935 69.350626 
L 277.345618 70.51597 
L 280.392301 71.906334 
L 283.438984 73.529141 
L 286.485667 75.397813 
L 289.532351 77.532924 
L 292.579034 79.962846 
L 295.625717 82.725072 
L 298.164619 85.315149 
L 300.703522 88.202975 
L 303.242424 91.428662 
L 305.781327 95.039115 
L 308.320229 99.087563 
L 310.859132 103.634196 
L 313.398034 108.744542 
L 315.429156 113.285433 
L 317.460278 118.26797 
L 319.999181 125.170606 
L 322.538084 132.880236 
L 325.076986 141.444295 
L 327.615889 150.887399 
L 330.154791 161.201632 
L 333.201474 174.656147 
L 336.248157 189.117075 
L 340.818182 212.07961 
L 348.434889 250.66383 
L 351.989353 267.458997 
L 355.036036 280.777838 
L 357.574939 290.995824 
L 360.113841 300.360566 
L 362.652744 308.852609 
L 365.191646 316.471169 
L 367.222768 321.94289 
L 369.25389 326.866837 
L 371.285012 331.247747 
L 373.316134 335.08817 
L 375.347256 338.387553 
L 376.870598 340.505043 
L 378.393939 342.313297 
L 379.917281 343.808637 
L 381.440622 344.98626 
L 382.963964 345.840804 
L 384.487305 346.365888 
L 386.010647 346.555155 
L 387.026208 346.491138 
L 388.041769 346.272409 
L 389.05733 345.896867 
L 390.580672 345.034362 
L 392.104013 343.806082 
L 393.627355 342.204033 
L 395.150696 340.22083 
L 396.674038 337.848649 
L 398.197379 335.080376 
L 399.720721 331.909292 
L 401.244062 328.329088 
L 403.275184 322.910323 
L 405.306306 316.7464 
L 407.337428 309.834276 
L 409.36855 302.178701 
L 411.907453 291.587874 
L 414.446355 279.917557 
L 416.985258 267.262493 
L 420.031941 250.970821 
L 424.094185 227.900483 
L 434.249795 169.483537 
L 437.296478 153.461438 
L 439.835381 141.100675 
L 442.374283 129.79216 
L 444.913186 119.638559 
L 446.944308 112.394342 
L 448.97543 105.955405 
L 451.006552 100.332093 
L 452.529894 96.651678 
L 454.053235 93.429407 
L 455.576577 90.66188 
L 457.099918 88.343338 
L 458.62326 86.467208 
L 460.146601 85.025503 
L 461.162162 84.301449 
L 462.177723 83.76361 
L 463.193284 83.409101 
L 464.208845 83.235116 
L 465.224406 83.238157 
L 466.239967 83.415336 
L 467.255528 83.762948 
L 468.271089 84.277868 
L 469.794431 85.355889 
L 471.317772 86.79039 
L 472.841114 88.569054 
L 474.364455 90.679157 
L 475.887797 93.108212 
L 477.918919 96.820464 
L 479.950041 101.044391 
L 481.981163 105.748207 
L 484.520066 112.251583 
L 487.058968 119.385898 
L 490.105651 128.683033 
L 493.660115 140.390789 
L 497.722359 154.664532 
L 502.800164 173.411583 
L 519.04914 234.10515 
L 523.619165 249.960442 
L 527.681409 263.251473 
L 531.235872 274.183978 
L 534.790336 284.424045 
L 538.344799 293.951037 
L 541.391482 301.545703 
L 544.438165 308.617302 
L 547.484848 315.175834 
L 550.531532 321.235772 
L 553.578215 326.81464 
L 556.624898 331.932198 
L 559.671581 336.61008 
L 562.718264 340.870549 
L 565.764947 344.73622 
L 568.81163 348.229951 
L 571.858313 351.374005 
L 574.904996 354.190266 
L 577.951679 356.699568 
L 580.998362 358.922538 
L 584.045045 360.878453 
L 587.091728 362.585504 
L 590.138411 364.061361 
L 593.692875 365.512813 
L 597.247338 366.696497 
L 600.801802 367.635182 
L 604.356265 368.350033 
L 608.418509 368.918205 
L 612.480753 369.246509 
L 616.542998 369.359792 
L 621.113022 369.257964 
L 622.636364 369.174879 
L 622.636364 369.174879 
" clip-path="url(#pe9b72470e4)" style="fill: none; stroke: #ff7f0e; stroke-width: 1.5; stroke-linecap: square"/>
   </g>
   <g id="patch_3">
    <path d="M 90 384.48 
L 90 51.84 
" style="fill: none; stroke: #000000; stroke-width: 0.8; stroke-linejoin: miter; stroke-linecap: square"/>
   </g>
   <g id="patch_4">
    <path d="M 648 384.48 
L 648 51.84 
" style="fill: none; stroke: #000000; stroke-width: 0.8; stroke-linejoin: miter; stroke-linecap: square"/>
   </g>
   <g id="patch_5">
    <path d="M 90 384.48 
L 648 384.48 
" style="fill: none; stroke: #000000; stroke-width: 0.8; stroke-linejoin: miter; stroke-linecap: square"/>
   </g>
   <g id="patch_6">
    <path d="M 90 51.84 
L 648 51.84 
" style="fill: none; stroke: #000000; stroke-width: 0.8; stroke-linejoin: miter; stroke-linecap: square"/>
   </g>
   <g id="text_14">
    <!-- Approximation of the target function using a neural network -->
    <g transform="translate(188.235938 45.84) scale(0.12 -0.12)">
     <defs>
      <path id="DejaVuSans-41" d="M 2188 4044 
L 1331 1722 
L 3047 1722 
L 2188 4044 
z
M 1831 4666 
L 2547 4666 
L 4325 0 
L 3669 0 
L 3244 1197 
L 1141 1197 
L 716 0 
L 50 0 
L 1831 4666 
z
" transform="scale(0.015625)"/>
      <path id="DejaVuSans-70" d="M 1159 525 
L 1159 -1331 
L 581 -1331 
L 581 3500 
L 1159 3500 
L 1159 2969 
Q 1341 3281 1617 3432 
Q 1894 3584 2278 3584 
Q 2916 3584 3314 3078 
Q 3713 2572 3713 1747 
Q 3713 922 3314 415 
Q 2916 -91 2278 -91 
Q 1894 -91 1617 61 
Q 1341 213 1159 525 
z
M 3116 1747 
Q 3116 2381 2855 2742 
Q 2594 3103 2138 3103 
Q 1681 3103 1420 2742 
Q 1159 2381 1159 1747 
Q 1159 1113 1420 752 
Q 1681 391 2138 391 
Q 2594 391 2855 752 
Q 3116 1113 3116 1747 
z
" transform="scale(0.015625)"/>
      <path id="DejaVuSans-72" d="M 2631 2963 
Q 2534 3019 2420 3045 
Q 2306 3072 2169 3072 
Q 1681 3072 1420 2755 
Q 1159 2438 1159 1844 
L 1159 0 
L 581 0 
L 581 3500 
L 1159 3500 
L 1159 2956 
Q 1341 3275 1631 3429 
Q 1922 3584 2338 3584 
Q 2397 3584 2469 3576 
Q 2541 3569 2628 3553 
L 2631 2963 
z
" transform="scale(0.015625)"/>
      <path id="DejaVuSans-6f" d="M 1959 3097 
Q 1497 3097 1228 2736 
Q 959 2375 959 1747 
Q 959 1119 1226 758 
Q 1494 397 1959 397 
Q 2419 397 2687 759 
Q 2956 1122 2956 1747 
Q 2956 2369 2687 2733 
Q 2419 3097 1959 3097 
z
M 1959 3584 
Q 2709 3584 3137 3096 
Q 3566 2609 3566 1747 
Q 3566 888 3137 398 
Q 2709 -91 1959 -91 
Q 1206 -91 779 398 
Q 353 888 353 1747 
Q 353 2609 779 3096 
Q 1206 3584 1959 3584 
z
" transform="scale(0.015625)"/>
      <path id="DejaVuSans-69" d="M 603 3500 
L 1178 3500 
L 1178 0 
L 603 0 
L 603 3500 
z
M 603 4863 
L 1178 4863 
L 1178 4134 
L 603 4134 
L 603 4863 
z
" transform="scale(0.015625)"/>
      <path id="DejaVuSans-6d" d="M 3328 2828 
Q 3544 3216 3844 3400 
Q 4144 3584 4550 3584 
Q 5097 3584 5394 3201 
Q 5691 2819 5691 2113 
L 5691 0 
L 5113 0 
L 5113 2094 
Q 5113 2597 4934 2840 
Q 4756 3084 4391 3084 
Q 3944 3084 3684 2787 
Q 3425 2491 3425 1978 
L 3425 0 
L 2847 0 
L 2847 2094 
Q 2847 2600 2669 2842 
Q 2491 3084 2119 3084 
Q 1678 3084 1418 2786 
Q 1159 2488 1159 1978 
L 1159 0 
L 581 0 
L 581 3500 
L 1159 3500 
L 1159 2956 
Q 1356 3278 1631 3431 
Q 1906 3584 2284 3584 
Q 2666 3584 2933 3390 
Q 3200 3197 3328 2828 
z
" transform="scale(0.015625)"/>
      <path id="DejaVuSans-61" d="M 2194 1759 
Q 1497 1759 1228 1600 
Q 959 1441 959 1056 
Q 959 750 1161 570 
Q 1363 391 1709 391 
Q 2188 391 2477 730 
Q 2766 1069 2766 1631 
L 2766 1759 
L 2194 1759 
z
M 3341 1997 
L 3341 0 
L 2766 0 
L 2766 531 
Q 2569 213 2275 61 
Q 1981 -91 1556 -91 
Q 1019 -91 701 211 
Q 384 513 384 1019 
Q 384 1609 779 1909 
Q 1175 2209 1959 2209 
L 2766 2209 
L 2766 2266 
Q 2766 2663 2505 2880 
Q 2244 3097 1772 3097 
Q 1472 3097 1187 3025 
Q 903 2953 641 2809 
L 641 3341 
Q 956 3463 1253 3523 
Q 1550 3584 1831 3584 
Q 2591 3584 2966 3190 
Q 3341 2797 3341 1997 
z
" transform="scale(0.015625)"/>
      <path id="DejaVuSans-74" d="M 1172 4494 
L 1172 3500 
L 2356 3500 
L 2356 3053 
L 1172 3053 
L 1172 1153 
Q 1172 725 1289 603 
Q 1406 481 1766 481 
L 2356 481 
L 2356 0 
L 1766 0 
Q 1100 0 847 248 
Q 594 497 594 1153 
L 594 3053 
L 172 3053 
L 172 3500 
L 594 3500 
L 594 4494 
L 1172 4494 
z
" transform="scale(0.015625)"/>
      <path id="DejaVuSans-6e" d="M 3513 2113 
L 3513 0 
L 2938 0 
L 2938 2094 
Q 2938 2591 2744 2837 
Q 2550 3084 2163 3084 
Q 1697 3084 1428 2787 
Q 1159 2491 1159 1978 
L 1159 0 
L 581 0 
L 581 3500 
L 1159 3500 
L 1159 2956 
Q 1366 3272 1645 3428 
Q 1925 3584 2291 3584 
Q 2894 3584 3203 3211 
Q 3513 2838 3513 2113 
z
" transform="scale(0.015625)"/>
      <path id="DejaVuSans-20" transform="scale(0.015625)"/>
      <path id="DejaVuSans-66" d="M 2375 4863 
L 2375 4384 
L 1825 4384 
Q 1516 4384 1395 4259 
Q 1275 4134 1275 3809 
L 1275 3500 
L 2222 3500 
L 2222 3053 
L 1275 3053 
L 1275 0 
L 697 0 
L 697 3053 
L 147 3053 
L 147 3500 
L 697 3500 
L 697 3744 
Q 697 4328 969 4595 
Q 1241 4863 1831 4863 
L 2375 4863 
z
" transform="scale(0.015625)"/>
      <path id="DejaVuSans-68" d="M 3513 2113 
L 3513 0 
L 2938 0 
L 2938 2094 
Q 2938 2591 2744 2837 
Q 2550 3084 2163 3084 
Q 1697 3084 1428 2787 
Q 1159 2491 1159 1978 
L 1159 0 
L 581 0 
L 581 4863 
L 1159 4863 
L 1159 2956 
Q 1366 3272 1645 3428 
Q 1925 3584 2291 3584 
Q 2894 3584 3203 3211 
Q 3513 2838 3513 2113 
z
" transform="scale(0.015625)"/>
      <path id="DejaVuSans-65" d="M 3597 1894 
L 3597 1613 
L 953 1613 
Q 991 1019 1311 708 
Q 1631 397 2203 397 
Q 2534 397 2845 478 
Q 3156 559 3463 722 
L 3463 178 
Q 3153 47 2828 -22 
Q 2503 -91 2169 -91 
Q 1331 -91 842 396 
Q 353 884 353 1716 
Q 353 2575 817 3079 
Q 1281 3584 2069 3584 
Q 2775 3584 3186 3129 
Q 3597 2675 3597 1894 
z
M 3022 2063 
Q 3016 2534 2758 2815 
Q 2500 3097 2075 3097 
Q 1594 3097 1305 2825 
Q 1016 2553 972 2059 
L 3022 2063 
z
" transform="scale(0.015625)"/>
      <path id="DejaVuSans-67" d="M 2906 1791 
Q 2906 2416 2648 2759 
Q 2391 3103 1925 3103 
Q 1463 3103 1205 2759 
Q 947 2416 947 1791 
Q 947 1169 1205 825 
Q 1463 481 1925 481 
Q 2391 481 2648 825 
Q 2906 1169 2906 1791 
z
M 3481 434 
Q 3481 -459 3084 -895 
Q 2688 -1331 1869 -1331 
Q 1566 -1331 1297 -1286 
Q 1028 -1241 775 -1147 
L 775 -588 
Q 1028 -725 1275 -790 
Q 1522 -856 1778 -856 
Q 2344 -856 2625 -561 
Q 2906 -266 2906 331 
L 2906 616 
Q 2728 306 2450 153 
Q 2172 0 1784 0 
Q 1141 0 747 490 
Q 353 981 353 1791 
Q 353 2603 747 3093 
Q 1141 3584 1784 3584 
Q 2172 3584 2450 3431 
Q 2728 3278 2906 2969 
L 2906 3500 
L 3481 3500 
L 3481 434 
z
" transform="scale(0.015625)"/>
      <path id="DejaVuSans-75" d="M 544 1381 
L 544 3500 
L 1119 3500 
L 1119 1403 
Q 1119 906 1312 657 
Q 1506 409 1894 409 
Q 2359 409 2629 706 
Q 2900 1003 2900 1516 
L 2900 3500 
L 3475 3500 
L 3475 0 
L 2900 0 
L 2900 538 
Q 2691 219 2414 64 
Q 2138 -91 1772 -91 
Q 1169 -91 856 284 
Q 544 659 544 1381 
z
M 1991 3584 
L 1991 3584 
z
" transform="scale(0.015625)"/>
      <path id="DejaVuSans-63" d="M 3122 3366 
L 3122 2828 
Q 2878 2963 2633 3030 
Q 2388 3097 2138 3097 
Q 1578 3097 1268 2742 
Q 959 2388 959 1747 
Q 959 1106 1268 751 
Q 1578 397 2138 397 
Q 2388 397 2633 464 
Q 2878 531 3122 666 
L 3122 134 
Q 2881 22 2623 -34 
Q 2366 -91 2075 -91 
Q 1284 -91 818 406 
Q 353 903 353 1747 
Q 353 2603 823 3093 
Q 1294 3584 2113 3584 
Q 2378 3584 2631 3529 
Q 2884 3475 3122 3366 
z
" transform="scale(0.015625)"/>
      <path id="DejaVuSans-73" d="M 2834 3397 
L 2834 2853 
Q 2591 2978 2328 3040 
Q 2066 3103 1784 3103 
Q 1356 3103 1142 2972 
Q 928 2841 928 2578 
Q 928 2378 1081 2264 
Q 1234 2150 1697 2047 
L 1894 2003 
Q 2506 1872 2764 1633 
Q 3022 1394 3022 966 
Q 3022 478 2636 193 
Q 2250 -91 1575 -91 
Q 1294 -91 989 -36 
Q 684 19 347 128 
L 347 722 
Q 666 556 975 473 
Q 1284 391 1588 391 
Q 1994 391 2212 530 
Q 2431 669 2431 922 
Q 2431 1156 2273 1281 
Q 2116 1406 1581 1522 
L 1381 1569 
Q 847 1681 609 1914 
Q 372 2147 372 2553 
Q 372 3047 722 3315 
Q 1072 3584 1716 3584 
Q 2034 3584 2315 3537 
Q 2597 3491 2834 3397 
z
" transform="scale(0.015625)"/>
      <path id="DejaVuSans-6c" d="M 603 4863 
L 1178 4863 
L 1178 0 
L 603 0 
L 603 4863 
z
" transform="scale(0.015625)"/>
      <path id="DejaVuSans-77" d="M 269 3500 
L 844 3500 
L 1563 769 
L 2278 3500 
L 2956 3500 
L 3675 769 
L 4391 3500 
L 4966 3500 
L 4050 0 
L 3372 0 
L 2619 2869 
L 1863 0 
L 1184 0 
L 269 3500 
z
" transform="scale(0.015625)"/>
      <path id="DejaVuSans-6b" d="M 581 4863 
L 1159 4863 
L 1159 1991 
L 2875 3500 
L 3609 3500 
L 1753 1863 
L 3688 0 
L 2938 0 
L 1159 1709 
L 1159 0 
L 581 0 
L 581 4863 
z
" transform="scale(0.015625)"/>
     </defs>
     <use xlink:href="#DejaVuSans-41"/>
     <use xlink:href="#DejaVuSans-70" x="68.408203"/>
     <use xlink:href="#DejaVuSans-70" x="131.884766"/>
     <use xlink:href="#DejaVuSans-72" x="195.361328"/>
     <use xlink:href="#DejaVuSans-6f" x="234.224609"/>
     <use xlink:href="#DejaVuSans-78" x="292.28125"/>
     <use xlink:href="#DejaVuSans-69" x="351.460938"/>
     <use xlink:href="#DejaVuSans-6d" x="379.244141"/>
     <use xlink:href="#DejaVuSans-61" x="476.65625"/>
     <use xlink:href="#DejaVuSans-74" x="537.935547"/>
     <use xlink:href="#DejaVuSans-69" x="577.144531"/>
     <use xlink:href="#DejaVuSans-6f" x="604.927734"/>
     <use xlink:href="#DejaVuSans-6e" x="666.109375"/>
     <use xlink:href="#DejaVuSans-20" x="729.488281"/>
     <use xlink:href="#DejaVuSans-6f" x="761.275391"/>
     <use xlink:href="#DejaVuSans-66" x="822.457031"/>
     <use xlink:href="#DejaVuSans-20" x="857.662109"/>
     <use xlink:href="#DejaVuSans-74" x="889.449219"/>
     <use xlink:href="#DejaVuSans-68" x="928.658203"/>
     <use xlink:href="#DejaVuSans-65" x="992.037109"/>
     <use xlink:href="#DejaVuSans-20" x="1053.560547"/>
     <use xlink:href="#DejaVuSans-74" x="1085.347656"/>
     <use xlink:href="#DejaVuSans-61" x="1124.556641"/>
     <use xlink:href="#DejaVuSans-72" x="1185.835938"/>
     <use xlink:href="#DejaVuSans-67" x="1225.199219"/>
     <use xlink:href="#DejaVuSans-65" x="1288.675781"/>
     <use xlink:href="#DejaVuSans-74" x="1350.199219"/>
     <use xlink:href="#DejaVuSans-20" x="1389.408203"/>
     <use xlink:href="#DejaVuSans-66" x="1421.195312"/>
     <use xlink:href="#DejaVuSans-75" x="1456.400391"/>
     <use xlink:href="#DejaVuSans-6e" x="1519.779297"/>
     <use xlink:href="#DejaVuSans-63" x="1583.158203"/>
     <use xlink:href="#DejaVuSans-74" x="1638.138672"/>
     <use xlink:href="#DejaVuSans-69" x="1677.347656"/>
     <use xlink:href="#DejaVuSans-6f" x="1705.130859"/>
     <use xlink:href="#DejaVuSans-6e" x="1766.3125"/>
     <use xlink:href="#DejaVuSans-20" x="1829.691406"/>
     <use xlink:href="#DejaVuSans-75" x="1861.478516"/>
     <use xlink:href="#DejaVuSans-73" x="1924.857422"/>
     <use xlink:href="#DejaVuSans-69" x="1976.957031"/>
     <use xlink:href="#DejaVuSans-6e" x="2004.740234"/>
     <use xlink:href="#DejaVuSans-67" x="2068.119141"/>
     <use xlink:href="#DejaVuSans-20" x="2131.595703"/>
     <use xlink:href="#DejaVuSans-61" x="2163.382812"/>
     <use xlink:href="#DejaVuSans-20" x="2224.662109"/>
     <use xlink:href="#DejaVuSans-6e" x="2256.449219"/>
     <use xlink:href="#DejaVuSans-65" x="2319.828125"/>
     <use xlink:href="#DejaVuSans-75" x="2381.351562"/>
     <use xlink:href="#DejaVuSans-72" x="2444.730469"/>
     <use xlink:href="#DejaVuSans-61" x="2485.84375"/>
     <use xlink:href="#DejaVuSans-6c" x="2547.123047"/>
     <use xlink:href="#DejaVuSans-20" x="2574.90625"/>
     <use xlink:href="#DejaVuSans-6e" x="2606.693359"/>
     <use xlink:href="#DejaVuSans-65" x="2670.072266"/>
     <use xlink:href="#DejaVuSans-74" x="2731.595703"/>
     <use xlink:href="#DejaVuSans-77" x="2770.804688"/>
     <use xlink:href="#DejaVuSans-6f" x="2852.591797"/>
     <use xlink:href="#DejaVuSans-72" x="2913.773438"/>
     <use xlink:href="#DejaVuSans-6b" x="2954.886719"/>
    </g>
   </g>
   <g id="legend_1">
    <g id="patch_7">
     <path d="M 532.348438 89.19625 
L 641 89.19625 
Q 643 89.19625 643 87.19625 
L 643 58.84 
Q 643 56.84 641 56.84 
L 532.348438 56.84 
Q 530.348438 56.84 530.348438 58.84 
L 530.348438 87.19625 
Q 530.348438 89.19625 532.348438 89.19625 
z
" style="fill: #ffffff; opacity: 0.8; stroke: #cccccc; stroke-linejoin: miter"/>
    </g>
    <g id="line2d_14">
     <path d="M 534.348438 64.938437 
L 544.348438 64.938437 
L 554.348438 64.938437 
" style="fill: none; stroke: #1f77b4; stroke-width: 1.5; stroke-linecap: square"/>
    </g>
    <g id="text_15">
     <!-- Target Function -->
     <g transform="translate(562.348438 68.438437) scale(0.1 -0.1)">
      <defs>
       <path id="DejaVuSans-54" d="M -19 4666 
L 3928 4666 
L 3928 4134 
L 2272 4134 
L 2272 0 
L 1638 0 
L 1638 4134 
L -19 4134 
L -19 4666 
z
" transform="scale(0.015625)"/>
       <path id="DejaVuSans-46" d="M 628 4666 
L 3309 4666 
L 3309 4134 
L 1259 4134 
L 1259 2759 
L 3109 2759 
L 3109 2228 
L 1259 2228 
L 1259 0 
L 628 0 
L 628 4666 
z
" transform="scale(0.015625)"/>
      </defs>
      <use xlink:href="#DejaVuSans-54"/>
      <use xlink:href="#DejaVuSans-61" x="44.583984"/>
      <use xlink:href="#DejaVuSans-72" x="105.863281"/>
      <use xlink:href="#DejaVuSans-67" x="145.226562"/>
      <use xlink:href="#DejaVuSans-65" x="208.703125"/>
      <use xlink:href="#DejaVuSans-74" x="270.226562"/>
      <use xlink:href="#DejaVuSans-20" x="309.435547"/>
      <use xlink:href="#DejaVuSans-46" x="341.222656"/>
      <use xlink:href="#DejaVuSans-75" x="393.242188"/>
      <use xlink:href="#DejaVuSans-6e" x="456.621094"/>
      <use xlink:href="#DejaVuSans-63" x="520"/>
      <use xlink:href="#DejaVuSans-74" x="574.980469"/>
      <use xlink:href="#DejaVuSans-69" x="614.189453"/>
      <use xlink:href="#DejaVuSans-6f" x="641.972656"/>
      <use xlink:href="#DejaVuSans-6e" x="703.154297"/>
     </g>
    </g>
    <g id="line2d_15">
     <path d="M 534.348438 79.616562 
L 544.348438 79.616562 
L 554.348438 79.616562 
" style="fill: none; stroke: #ff7f0e; stroke-width: 1.5; stroke-linecap: square"/>
    </g>
    <g id="text_16">
     <!-- Approximation -->
     <g transform="translate(562.348438 83.116562) scale(0.1 -0.1)">
      <use xlink:href="#DejaVuSans-41"/>
      <use xlink:href="#DejaVuSans-70" x="68.408203"/>
      <use xlink:href="#DejaVuSans-70" x="131.884766"/>
      <use xlink:href="#DejaVuSans-72" x="195.361328"/>
      <use xlink:href="#DejaVuSans-6f" x="234.224609"/>
      <use xlink:href="#DejaVuSans-78" x="292.28125"/>
      <use xlink:href="#DejaVuSans-69" x="351.460938"/>
      <use xlink:href="#DejaVuSans-6d" x="379.244141"/>
      <use xlink:href="#DejaVuSans-61" x="476.65625"/>
      <use xlink:href="#DejaVuSans-74" x="537.935547"/>
      <use xlink:href="#DejaVuSans-69" x="577.144531"/>
      <use xlink:href="#DejaVuSans-6f" x="604.927734"/>
      <use xlink:href="#DejaVuSans-6e" x="666.109375"/>
     </g>
    </g>
   </g>
  </g>
 </g>
 <defs>
  <clipPath id="pe9b72470e4">
   <rect x="90" y="51.84" width="558" height="332.64"/>
  </clipPath>
 </defs>
</svg>
